<svg width="80" height="80" viewBox="0 0 80 80" xmlns="http://www.w3.org/2000/svg">
  <rect x="0" y="8" width="80" height="70" rx="6" fill="#e8edf5" stroke="#222" stroke-width="1.5"/>
  <rect x="0" y="8" width="80" height="22" rx="6" fill="#e8495a" stroke="#222" stroke-width="1.5"/>
  <rect x="0" y="22" width="80" height="8" fill="#e8495a"/>
  <line x1="0" y1="30" x2="80" y2="30" stroke="#c0001a" stroke-width="1.2"/>
  <rect x="7" y="14" width="7" height="12" rx="3.5" fill="#d8e8f5" stroke="#222" stroke-width="1"/>
  <rect x="24" y="14" width="7" height="12" rx="3.5" fill="#d8e8f5" stroke="#222" stroke-width="1"/>
  <rect x="41" y="14" width="7" height="12" rx="3.5" fill="#d8e8f5" stroke="#222" stroke-width="1"/>
  <rect x="58" y="14" width="7" height="12" rx="3.5" fill="#d8e8f5" stroke="#222" stroke-width="1"/>
  <rect x="7" y="36" width="16" height="11" rx="2" fill="#3a4d8f"/>
  <rect x="32" y="36" width="16" height="11" rx="2" fill="#3a4d8f"/>
  <rect x="57" y="36" width="16" height="11" rx="2" fill="#3a4d8f"/>
  <rect x="7" y="53" width="16" height="11" rx="2" fill="#3a4d8f"/>
  <rect x="32" y="53" width="16" height="11" rx="2" fill="#3a4d8f"/>
  <rect x="57" y="53" width="16" height="11" rx="2" fill="#3a4d8f"/>
</svg>
